Facade-Italic.ufo
<glyph name="quotesingle" format="2">
  <advance width="270"/>
  <unicode hex="0027"/>
  <outline>
    <contour>
      <point x="181" y="570" type="line"/>
      <point x="223" y="570" type="line"/>
      <point x="355" y="900" type="line"/>
      <point x="217" y="900" type="line"/>
    </contour>
  </outline>
</glyph>
<glyph name="asterisk" format="2">
  <advance width="600"/>
  <unicode hex="002A"/>
  <outline>
    <contour>
      <point x="219" y="428" type="line"/>
      <point x="371" y="586" type="line"/>
      <point x="438" y="401" type="line"/>
      <point x="528" y="447" type="line"/>
      <point x="437" y="621" type="line"/>
      <point x="649" y="648" type="line"/>
      <point x="641" y="741" type="line"/>
      <point x="433" y="690" type="line"/>
      <point x="497" y="900" type="line"/>
      <point x="401" y="900" type="line"/>
      <point x="364" y="698" type="line"/>
      <point x="192" y="796" type="line"/>
      <point x="141" y="710" type="line"/>
      <point x="327" y="635" type="line"/>
      <point x="157" y="493" type="line"/>
    </contour>
  </outline>
</glyph>
<glyph name="one" format="2">
  <advance width="750"/>
  <unicode hex="0031"/>
  <outline>
    <contour>
      <point x="295" y="0" type="line"/>
      <point x="405" y="0" type="line"/>
      <point x="634" y="920" type="line"/>
      <point x="277" y="760" type="line"/>
      <point x="249" y="646" type="line"/>
      <point x="512" y="765" type="line"/>
      <point x="488" y="772" type="line"/>
    </contour>
    <contour>
      <point x="87" y="0" type="line"/>
      <point x="573" y="0" type="line"/>
      <point x="595" y="90" type="line"/>
      <point x="109" y="90" type="line"/>
    </contour>
  </outline>
</glyph>
<glyph name="four" format="2">
  <advance width="750"/>
  <unicode hex="0034"/>
  <outline>
    <contour>
      <point x="382" y="0" type="line"/>
      <point x="490" y="0" type="line"/>
      <point x="550" y="242" type="line"/>
      <point x="682" y="242" type="line"/>
      <point x="705" y="338" type="line"/>
      <point x="570" y="338" type="line"/>
      <point x="629" y="574" type="line"/>
      <point x="514" y="520" type="line"/>
      <point x="468" y="338" type="line"/>
      <point x="152" y="338" type="line"/>
      <point x="173" y="297" type="line"/>
      <point x="638" y="900" type="line"/>
      <point x="512" y="900" type="line"/>
      <point x="10" y="242" type="line"/>
      <point x="442" y="242" type="line"/>
    </contour>
  </outline>
</glyph>
<glyph name="six" format="2">
  <advance width="750"/>
  <unicode hex="0036"/>
  <outline>
    <contour>
      <point x="357" y="-12" type="curve" smooth="yes"/>
      <point x="543" y="-12"/>
      <point x="705" y="150"/>
      <point x="705" y="333" type="curve" smooth="yes"/>
      <point x="705" y="493"/>
      <point x="577" y="594"/>
      <point x="453" y="594" type="curve" smooth="yes"/>
      <point x="416" y="594"/>
      <point x="378" y="585"/>
      <point x="338" y="558" type="curve"/>
      <point x="344" y="547" type="line"/>
      <point x="643" y="900" type="line"/>
      <point x="508" y="900" type="line"/>
      <point x="156" y="473" type="line" smooth="yes"/>
      <point x="103" y="408"/>
      <point x="75" y="332"/>
      <point x="75" y="259" type="curve" smooth="yes"/>
      <point x="75" y="99"/>
      <point x="204" y="-12"/>
    </contour>
    <contour>
      <point x="368" y="90" type="curve" smooth="yes"/>
      <point x="261" y="90"/>
      <point x="187" y="173"/>
      <point x="187" y="271" type="curve" smooth="yes"/>
      <point x="187" y="394"/>
      <point x="297" y="500"/>
      <point x="416" y="500" type="curve" smooth="yes"/>
      <point x="521" y="500"/>
      <point x="594" y="419"/>
      <point x="594" y="322" type="curve" smooth="yes"/>
      <point x="594" y="199"/>
      <point x="485" y="90"/>
    </contour>
  </outline>
</glyph>
<glyph name="seven" format="2">
  <advance width="750"/>
  <unicode hex="0037"/>
  <outline>
    <contour>
      <point x="32" y="0" type="line"/>
      <point x="164" y="0" type="line"/>
      <point x="834" y="900" type="line"/>
      <point x="235" y="900" type="line"/>
      <point x="210" y="798" type="line"/>
      <point x="669" y="798" type="line"/>
      <point x="649" y="825" type="line"/>
    </contour>
  </outline>
</glyph>
<glyph name="less" format="2">
  <advance width="750"/>
  <unicode hex="003C"/>
  <outline>
    <contour>
      <point x="625" y="158" type="line"/>
      <point x="647" y="248" type="line"/>
      <point x="382" y="392" type="line" smooth="yes"/>
      <point x="350" y="410"/>
      <point x="311" y="427"/>
      <point x="274" y="443" type="curve"/>
      <point x="319" y="460"/>
      <point x="366" y="477"/>
      <point x="408" y="495" type="curve" smooth="yes"/>
      <point x="744" y="640" type="line"/>
      <point x="769" y="744" type="line"/>
      <point x="97" y="450" type="line"/>
    </contour>
  </outline>
</glyph>
<glyph name="greater" format="2">
  <advance width="750"/>
  <unicode hex="003E"/>
  <outline>
    <contour>
      <point x="55" y="158" type="line"/>
      <point x="727" y="452" type="line"/>
      <point x="199" y="744" type="line"/>
      <point x="177" y="654" type="line"/>
      <point x="442" y="510" type="line" smooth="yes"/>
      <point x="474" y="492"/>
      <point x="513" y="475"/>
      <point x="550" y="459" type="curve"/>
      <point x="505" y="442"/>
      <point x="458" y="425"/>
      <point x="416" y="407" type="curve" smooth="yes"/>
      <point x="80" y="262" type="line"/>
    </contour>
  </outline>
</glyph>
<glyph name="B" format="2">
  <advance width="750"/>
  <unicode hex="0042"/>
  <outline>
    <contour>
      <point x="51" y="0" type="line"/>
      <point x="351" y="0" type="line" smooth="yes"/>
      <point x="527" y="0"/>
      <point x="687" y="148"/>
      <point x="687" y="323" type="curve" smooth="yes"/>
      <point x="687" y="420"/>
      <point x="638" y="498"/>
      <point x="562" y="537" type="curve"/>
      <point x="558" y="510" type="line"/>
      <point x="643" y="543"/>
      <point x="706" y="625"/>
      <point x="706" y="719" type="curve" smooth="yes"/>
      <point x="706" y="825"/>
      <point x="622" y="900"/>
      <point x="513" y="900" type="curve" smooth="yes"/>
      <point x="276" y="900" type="line"/>
    </contour>
    <contour>
      <point x="190" y="102" type="line"/>
      <point x="285" y="480" type="line"/>
      <point x="400" y="480" type="line" smooth="yes"/>
      <point x="501" y="480"/>
      <point x="573" y="413"/>
      <point x="573" y="317" type="curve" smooth="yes"/>
      <point x="573" y="201"/>
      <point x="471" y="102"/>
      <point x="352" y="102" type="curve" smooth="yes"/>
    </contour>
    <contour>
      <point x="309" y="576" type="line"/>
      <point x="365" y="798" type="line"/>
      <point x="497" y="798" type="line" smooth="yes"/>
      <point x="556" y="798"/>
      <point x="598" y="759"/>
      <point x="598" y="702" type="curve" smooth="yes"/>
      <point x="598" y="634"/>
      <point x="538" y="576"/>
      <point x="459" y="576" type="curve" smooth="yes"/>
    </contour>
  </outline>
</glyph>
<glyph name="G" format="2">
  <advance width="940"/>
  <unicode hex="0047"/>
  <anchor x="456" y="0" name="bottom"/>
  <anchor x="777" y="270" name="center"/>
  <anchor x="679" y="900" name="top"/>
  <outline>
    <contour>
      <point x="512" y="-18" type="curve" smooth="yes"/>
      <point x="613" y="-18"/>
      <point x="712" y="17"/>
      <point x="796" y="73" type="curve"/>
      <point x="895" y="480" type="line"/>
      <point x="537" y="480" type="line"/>
      <point x="512" y="378" type="line"/>
      <point x="760" y="378" type="line"/>
      <point x="701" y="139" type="line"/>
      <point x="646" y="108"/>
      <point x="585" y="90"/>
      <point x="523" y="90" type="curve" smooth="yes"/>
      <point x="349" y="90"/>
      <point x="216" y="225"/>
      <point x="216" y="403" type="curve" smooth="yes"/>
      <point x="216" y="616"/>
      <point x="404" y="810"/>
      <point x="611" y="810" type="curve" smooth="yes"/>
      <point x="723" y="810"/>
      <point x="818" y="754"/>
      <point x="871" y="667" type="curve"/>
      <point x="929" y="786" type="line"/>
      <point x="854" y="868"/>
      <point x="746" y="918"/>
      <point x="622" y="918" type="curve" smooth="yes"/>
      <point x="347" y="918"/>
      <point x="98" y="669"/>
      <point x="98" y="395" type="curve" smooth="yes"/>
      <point x="98" y="162"/>
      <point x="278" y="-18"/>
    </contour>
  </outline>
</glyph>
<glyph name="M" format="2">
  <advance width="1080"/>
  <unicode hex="004D"/>
  <outline>
    <contour>
      <point x="51" y="0" type="line"/>
      <point x="159" y="0" type="line"/>
      <point x="257" y="392" type="line" smooth="yes"/>
      <point x="272" y="451"/>
      <point x="289" y="521"/>
      <point x="302" y="616" type="curve"/>
      <point x="330" y="530"/>
      <point x="358" y="470"/>
      <point x="382" y="419" type="curve" smooth="yes"/>
      <point x="503" y="168" type="line"/>
      <point x="788" y="467" type="line" smooth="yes"/>
      <point x="827" y="508"/>
      <point x="872" y="554"/>
      <point x="924" y="616" type="curve"/>
      <point x="901" y="545"/>
      <point x="887" y="489"/>
      <point x="875" y="440" type="curve" smooth="yes"/>
      <point x="766" y="4" type="line"/>
      <point x="880" y="4" type="line"/>
      <point x="1116" y="954" type="line"/>
      <point x="542" y="353" type="line"/>
      <point x="276" y="906" type="line"/>
    </contour>
  </outline>
</glyph>
<glyph name="O" format="2">
  <advance width="1060"/>
  <unicode hex="004F"/>
  <anchor x="456" y="0" name="bottom"/>
  <anchor x="567" y="450" name="center"/>
  <anchor x="486" y="0" name="ogonek"/>
  <anchor x="678" y="900" name="top"/>
  <anchor x="582" y="510" name="top-vertical"/>
  <anchor x="208" y="900" name="topleft"/>
  <anchor x="1148" y="900" name="topright"/>
  <outline>
    <contour>
      <point x="512" y="-18" type="curve" smooth="yes"/>
      <point x="787" y="-18"/>
      <point x="1036" y="231"/>
      <point x="1036" y="505" type="curve" smooth="yes"/>
      <point x="1036" y="738"/>
      <point x="856" y="918"/>
      <point x="622" y="918" type="curve" smooth="yes"/>
      <point x="347" y="918"/>
      <point x="98" y="669"/>
      <point x="98" y="395" type="curve" smooth="yes"/>
      <point x="98" y="162"/>
      <point x="278" y="-18"/>
    </contour>
    <contour>
      <point x="523" y="90" type="curve" smooth="yes"/>
      <point x="349" y="90"/>
      <point x="216" y="225"/>
      <point x="216" y="403" type="curve" smooth="yes"/>
      <point x="216" y="616"/>
      <point x="404" y="810"/>
      <point x="611" y="810" type="curve" smooth="yes"/>
      <point x="785" y="810"/>
      <point x="918" y="675"/>
      <point x="918" y="497" type="curve" smooth="yes"/>
      <point x="918" y="284"/>
      <point x="730" y="90"/>
    </contour>
  </outline>
</glyph>
<glyph name="P" format="2">
  <advance width="720"/>
  <unicode hex="0050"/>
  <outline>
    <contour>
      <point x="182" y="316" type="line"/>
      <point x="400" y="316" type="line" smooth="yes"/>
      <point x="588" y="316"/>
      <point x="750" y="466"/>
      <point x="750" y="644" type="curve" smooth="yes"/>
      <point x="750" y="795"/>
      <point x="633" y="900"/>
      <point x="471" y="900" type="curve" smooth="yes"/>
      <point x="329" y="900" type="line"/>
      <point x="304" y="798" type="line"/>
      <point x="450" y="798" type="line" smooth="yes"/>
      <point x="563" y="798"/>
      <point x="636" y="731"/>
      <point x="636" y="634" type="curve" smooth="yes"/>
      <point x="636" y="517"/>
      <point x="533" y="418"/>
      <point x="402" y="418" type="curve" smooth="yes"/>
      <point x="207" y="418" type="line"/>
    </contour>
    <contour>
      <point x="51" y="0" type="line"/>
      <point x="165" y="0" type="line"/>
      <point x="390" y="900" type="line"/>
      <point x="276" y="900" type="line"/>
    </contour>
  </outline>
</glyph>
<glyph name="V" format="2">
  <advance width="750"/>
  <unicode hex="0056"/>
  <outline>
    <contour>
      <point x="293" y="-30" type="line"/>
      <point x="295" y="-30" type="line"/>
      <point x="888" y="900" type="line"/>
      <point x="766" y="900" type="line"/>
      <point x="420" y="358" type="line" smooth="yes"/>
      <point x="388" y="308"/>
      <point x="367" y="272"/>
      <point x="328" y="190" type="curve"/>
      <point x="360" y="190" type="line"/>
      <point x="361" y="272"/>
      <point x="357" y="308"/>
      <point x="350" y="358" type="curve" smooth="yes"/>
      <point x="273" y="900" type="line"/>
      <point x="162" y="900" type="line"/>
    </contour>
  </outline>
</glyph>
<glyph name="Y" format="2">
  <advance width="690"/>
  <unicode hex="0059"/>
  <anchor x="271" y="0" name="bottom"/>
  <anchor x="496" y="900" name="top"/>
  <anchor x="173" y="900" name="topleft"/>
  <outline>
    <contour>
      <point x="213" y="0" type="line"/>
      <point x="327" y="0" type="line"/>
      <point x="436" y="435" type="line"/>
      <point x="822" y="900" type="line"/>
      <point x="690" y="900" type="line"/>
      <point x="475" y="638" type="line" smooth="yes"/>
      <point x="436" y="590"/>
      <point x="405" y="550"/>
      <point x="359" y="472" type="curve"/>
      <point x="403" y="471" type="line"/>
      <point x="397" y="549"/>
      <point x="385" y="591"/>
      <point x="370" y="638" type="curve" smooth="yes"/>
      <point x="288" y="900" type="line"/>
      <point x="168" y="900" type="line"/>
      <point x="322" y="435" type="line"/>
    </contour>
  </outline>
</glyph>
<glyph name="backslash" format="2">
  <advance width="540"/>
  <unicode hex="005C"/>
  <outline>
    <contour>
      <point x="387" y="-180" type="line"/>
      <point x="479" y="-180" type="line"/>
      <point x="203" y="960" type="line"/>
      <point x="111" y="960" type="line"/>
    </contour>
  </outline>
</glyph>
<glyph name="m" format="2">
  <advance width="1120"/>
  <unicode hex="006D"/>
  <anchor x="566" y="0" name="bottom"/>
  <anchor x="566" y="600" name="top"/>
  <outline>
    <contour>
      <point x="437" y="0" type="line"/>
      <point x="545" y="0" type="line"/>
      <point x="630" y="336" type="line" smooth="yes"/>
      <point x="667" y="484"/>
      <point x="605" y="612"/>
      <point x="448" y="612" type="curve" smooth="yes"/>
      <point x="332" y="612"/>
      <point x="210" y="529"/>
      <point x="169" y="360" type="curve"/>
      <point x="217" y="352" type="line"/>
      <point x="244" y="463"/>
      <point x="330" y="522"/>
      <point x="411" y="522" type="curve" smooth="yes"/>
      <point x="513" y="522"/>
      <point x="547" y="436"/>
      <point x="521" y="334" type="curve" smooth="yes"/>
    </contour>
    <contour>
      <point x="21" y="0" type="line"/>
      <point x="129" y="0" type="line"/>
      <point x="240" y="439" type="line"/>
      <point x="237" y="462" type="line"/>
      <point x="271" y="600" type="line"/>
      <point x="171" y="600" type="line"/>
    </contour>
    <contour>
      <point x="853" y="0" type="line"/>
      <point x="961" y="0" type="line"/>
      <point x="1046" y="336" type="line" smooth="yes"/>
      <point x="1083" y="484"/>
      <point x="1021" y="612"/>
      <point x="853" y="612" type="curve" smooth="yes"/>
      <point x="729" y="612"/>
      <point x="599" y="529"/>
      <point x="555" y="360" type="curve"/>
      <point x="633" y="352" type="line"/>
      <point x="660" y="463"/>
      <point x="746" y="522"/>
      <point x="827" y="522" type="curve" smooth="yes"/>
      <point x="929" y="522"/>
      <point x="963" y="436"/>
      <point x="937" y="334" type="curve" smooth="yes"/>
    </contour>
  </outline>
</glyph>
<glyph name="o" format="2">
  <advance width="740"/>
  <unicode hex="006F"/>
  <anchor x="296" y="0" name="bottom"/>
  <anchor x="370" y="300" name="center"/>
  <anchor x="326" y="0" name="ogonek"/>
  <anchor x="444" y="600" name="top"/>
  <anchor x="604" y="600" name="topright"/>
  <outline>
    <contour>
      <point x="333" y="-12" type="curve" smooth="yes"/>
      <point x="519" y="-12"/>
      <point x="686" y="153"/>
      <point x="686" y="337" type="curve" smooth="yes"/>
      <point x="686" y="494"/>
      <point x="562" y="612"/>
      <point x="407" y="612" type="curve" smooth="yes"/>
      <point x="221" y="612"/>
      <point x="54" y="447"/>
      <point x="54" y="263" type="curve" smooth="yes"/>
      <point x="54" y="106"/>
      <point x="178" y="-12"/>
    </contour>
    <contour>
      <point x="344" y="90" type="curve" smooth="yes"/>
      <point x="238" y="90"/>
      <point x="164" y="173"/>
      <point x="164" y="274" type="curve" smooth="yes"/>
      <point x="164" y="398"/>
      <point x="275" y="510"/>
      <point x="396" y="510" type="curve" smooth="yes"/>
      <point x="502" y="510"/>
      <point x="576" y="427"/>
      <point x="576" y="326" type="curve" smooth="yes"/>
      <point x="576" y="202"/>
      <point x="465" y="90"/>
    </contour>
  </outline>
</glyph>
<glyph name="r" format="2">
  <advance width="450"/>
  <unicode hex="0072"/>
  <anchor x="75" y="0" name="bottom"/>
  <anchor x="312" y="600" name="top"/>
  <outline>
    <contour>
      <point x="21" y="0" type="line"/>
      <point x="129" y="0" type="line"/>
      <point x="239" y="438" type="line"/>
      <point x="237" y="461" type="line"/>
      <point x="271" y="600" type="line"/>
      <point x="171" y="600" type="line"/>
    </contour>
    <contour>
      <point x="148" y="298" type="curve"/>
      <point x="205" y="298" type="line"/>
      <point x="237" y="430"/>
      <point x="329" y="504"/>
      <point x="439" y="504" type="curve" smooth="yes"/>
      <point x="453" y="504"/>
      <point x="470" y="502"/>
      <point x="482" y="498" type="curve"/>
      <point x="482" y="606" type="line"/>
      <point x="314" y="606"/>
      <point x="189" y="465"/>
    </contour>
  </outline>
</glyph>
<glyph name="t" format="2">
  <advance width="450"/>
  <unicode hex="0074"/>
  <anchor x="145" y="0" name="bottom"/>
  <anchor x="218" y="300" name="center"/>
  <anchor x="343" y="800" name="top"/>
  <anchor x="470" y="1020" name="topright"/>
  <outline>
    <contour>
      <point x="91" y="0" type="line"/>
      <point x="199" y="0" type="line"/>
      <point x="336" y="549" type="line"/>
      <point x="333" y="549" type="line"/>
      <point x="394" y="800" type="line"/>
      <point x="292" y="800" type="line"/>
      <point x="231" y="550" type="line"/>
      <point x="228" y="550" type="line"/>
    </contour>
    <contour>
      <point x="82" y="510" type="line"/>
      <point x="472" y="510" type="line"/>
      <point x="495" y="600" type="line"/>
      <point x="105" y="600" type="line"/>
    </contour>
  </outline>
</glyph>
<glyph name="v" format="2">
  <advance width="630"/>
  <unicode hex="0076"/>
  <outline>
    <contour>
      <point x="234" y="-30" type="line"/>
      <point x="693" y="600" type="line"/>
      <point x="570" y="600" type="line"/>
      <point x="383" y="340" type="line" smooth="yes"/>
      <point x="343" y="285"/>
      <point x="307" y="238"/>
      <point x="263" y="149" type="curve"/>
      <point x="284" y="148" type="line"/>
      <point x="283" y="238"/>
      <point x="272" y="284"/>
      <point x="260" y="340" type="curve" smooth="yes"/>
      <point x="202" y="600" type="line"/>
      <point x="87" y="600" type="line"/>
    </contour>
  </outline>
</glyph>
<glyph name="y" format="2">
  <advance width="650"/>
  <unicode hex="0079"/>
  <anchor x="370" y="0" name="bottom"/>
  <anchor x="404" y="600" name="top"/>
  <outline>
    <contour>
      <point x="-86" y="-300" type="line"/>
      <point x="41" y="-300" type="line"/>
      <point x="713" y="600" type="line"/>
      <point x="588" y="600" type="line"/>
      <point x="394" y="340" type="line" smooth="yes"/>
      <point x="353" y="285"/>
      <point x="317" y="238"/>
      <point x="269" y="149" type="curve"/>
      <point x="294" y="148" type="line"/>
      <point x="290" y="238"/>
      <point x="277" y="284"/>
      <point x="263" y="340" type="curve" smooth="yes"/>
      <point x="199" y="600" type="line"/>
      <point x="87" y="600" type="line"/>
      <point x="213" y="98" type="line"/>
    </contour>
  </outline>
</glyph>
<glyph name="braceleft" format="2">
  <advance width="480"/>
  <unicode hex="007B"/>
  <outline>
    <contour>
      <point x="290" y="-186" type="curve"/>
      <point x="331" y="-102" type="line"/>
      <point x="237" y="-89"/>
      <point x="164" y="-41"/>
      <point x="201" y="110" type="curve" smooth="yes"/>
      <point x="215" y="164"/>
      <point x="238" y="210"/>
      <point x="250" y="256" type="curve" smooth="yes"/>
      <point x="279" y="371"/>
      <point x="218" y="428"/>
      <point x="120" y="440" type="curve"/>
      <point x="113" y="411" type="line"/>
      <point x="210" y="399"/>
      <point x="295" y="437"/>
      <point x="324" y="554" type="curve" smooth="yes"/>
      <point x="335" y="601"/>
      <point x="335" y="647"/>
      <point x="348" y="702" type="curve" smooth="yes"/>
      <point x="385" y="854"/>
      <point x="480" y="870"/>
      <point x="574" y="870" type="curve"/>
      <point x="574" y="966" type="line"/>
      <point x="409" y="966"/>
      <point x="291" y="893"/>
      <point x="250" y="723" type="curve" smooth="yes"/>
      <point x="236" y="665"/>
      <point x="236" y="618"/>
      <point x="224" y="569" type="curve" smooth="yes"/>
      <point x="203" y="485"/>
      <point x="158" y="457"/>
      <point x="75" y="431" type="curve"/>
      <point x="140" y="386"/>
      <point x="169" y="349"/>
      <point x="149" y="266" type="curve" smooth="yes"/>
      <point x="137" y="218"/>
      <point x="113" y="170"/>
      <point x="99" y="114" type="curve" smooth="yes"/>
      <point x="54" y="-65"/>
      <point x="152" y="-164"/>
    </contour>
  </outline>
</glyph>
<glyph name="asciitilde" format="2">
  <advance width="750"/>
  <unicode hex="007E"/>
  <outline>
    <contour>
      <point x="109" y="351" type="line"/>
      <point x="151" y="409"/>
      <point x="202" y="448"/>
      <point x="261" y="448" type="curve" smooth="yes"/>
      <point x="364" y="448"/>
      <point x="429" y="360"/>
      <point x="554" y="360" type="curve" smooth="yes"/>
      <point x="624" y="360"/>
      <point x="693" y="395"/>
      <point x="742" y="461" type="curve"/>
      <point x="716" y="549" type="line"/>
      <point x="674" y="491"/>
      <point x="624" y="452"/>
      <point x="566" y="452" type="curve" smooth="yes"/>
      <point x="461" y="452"/>
      <point x="395" y="540"/>
      <point x="269" y="540" type="curve" smooth="yes"/>
      <point x="200" y="540"/>
      <point x="131" y="504"/>
      <point x="83" y="438" type="curve"/>
    </contour>
  </outline>
</glyph>
<glyph name="cent" format="2">
  <advance width="750"/>
  <unicode hex="00A2"/>
  <outline>
    <contour>
      <point x="436" y="138" type="curve" smooth="yes"/>
      <point x="517" y="138"/>
      <point x="589" y="165"/>
      <point x="648" y="209" type="curve"/>
      <point x="648" y="354" type="line"/>
      <point x="606" y="287"/>
      <point x="531" y="240"/>
      <point x="447" y="240" type="curve" smooth="yes"/>
      <point x="335" y="240"/>
      <point x="261" y="323"/>
      <point x="261" y="424" type="curve" smooth="yes"/>
      <point x="261" y="548"/>
      <point x="372" y="660"/>
      <point x="499" y="660" type="curve" smooth="yes"/>
      <point x="582" y="660"/>
      <point x="642" y="616"/>
      <point x="669" y="554" type="curve"/>
      <point x="726" y="671" type="line"/>
      <point x="675" y="727"/>
      <point x="600" y="762"/>
      <point x="516" y="762" type="curve" smooth="yes"/>
      <point x="324" y="762"/>
      <point x="151" y="597"/>
      <point x="151" y="413" type="curve" smooth="yes"/>
      <point x="151" y="256"/>
      <point x="275" y="138"/>
    </contour>
    <contour>
      <point x="304" y="0" type="line"/>
      <point x="388" y="0" type="line"/>
      <point x="604" y="870" type="line"/>
      <point x="520" y="870" type="line"/>
    </contour>
  </outline>
</glyph>
<glyph name="sterling" format="2">
  <advance width="750"/>
  <unicode hex="00A3"/>
  <outline>
    <contour>
      <point x="78" y="0" type="curve"/>
      <point x="587" y="0" type="line"/>
      <point x="610" y="96" type="line"/>
      <point x="230" y="96" type="line"/>
      <point x="122" y="33" type="line"/>
      <point x="229" y="59"/>
      <point x="316" y="96"/>
      <point x="350" y="234" type="curve" smooth="yes"/>
      <point x="378" y="344"/>
      <point x="376" y="521"/>
      <point x="403" y="632" type="curve" smooth="yes"/>
      <point x="433" y="755"/>
      <point x="504" y="810"/>
      <point x="581" y="810" type="curve" smooth="yes"/>
      <point x="664" y="810"/>
      <point x="706" y="752"/>
      <point x="722" y="674" type="curve"/>
      <point x="789" y="806" type="line"/>
      <point x="742" y="880"/>
      <point x="668" y="912"/>
      <point x="591" y="912" type="curve" smooth="yes"/>
      <point x="466" y="912"/>
      <point x="343" y="827"/>
      <point x="299" y="654" type="curve" smooth="yes"/>
      <point x="269" y="534"/>
      <point x="280" y="382"/>
      <point x="249" y="246" type="curve" smooth="yes"/>
      <point x="228" y="155"/>
      <point x="198" y="104"/>
    </contour>
    <contour>
      <point x="117" y="408" type="line"/>
      <point x="627" y="408" type="line"/>
      <point x="648" y="492" type="line"/>
      <point x="138" y="492" type="line"/>
    </contour>
  </outline>
</glyph>
<glyph name="currency" format="2">
  <advance width="750"/>
  <unicode hex="00A4"/>
  <outline>
    <contour>
      <point x="376" y="138" type="curve" smooth="yes"/>
      <point x="438" y="138"/>
      <point x="497" y="156"/>
      <point x="549" y="187" type="curve"/>
      <point x="599" y="120" type="line"/>
      <point x="673" y="180" type="line"/>
      <point x="624" y="245" type="line"/>
      <point x="688" y="309"/>
      <point x="729" y="396"/>
      <point x="729" y="487" type="curve" smooth="yes"/>
      <point x="729" y="534"/>
      <point x="718" y="578"/>
      <point x="698" y="616" type="curve"/>
      <point x="775" y="676" type="line"/>
      <point x="718" y="750" type="line"/>
      <point x="641" y="690" type="line"/>
      <point x="591" y="735"/>
      <point x="524" y="762"/>
      <point x="450" y="762" type="curve" smooth="yes"/>
      <point x="388" y="762"/>
      <point x="328" y="744"/>
      <point x="276" y="712" type="curve"/>
      <point x="225" y="780" type="line"/>
      <point x="151" y="720" type="line"/>
      <point x="201" y="653" type="line"/>
      <point x="137" y="589"/>
      <point x="97" y="504"/>
      <point x="97" y="413" type="curve" smooth="yes"/>
      <point x="97" y="366"/>
      <point x="108" y="323"/>
      <point x="127" y="286" type="curve"/>
      <point x="49" y="224" type="line"/>
      <point x="106" y="150" type="line"/>
      <point x="184" y="211" type="line"/>
      <point x="234" y="165"/>
      <point x="301" y="138"/>
    </contour>
    <contour>
      <point x="387" y="240" type="curve" smooth="yes"/>
      <point x="281" y="240"/>
      <point x="207" y="323"/>
      <point x="207" y="424" type="curve" smooth="yes"/>
      <point x="207" y="548"/>
      <point x="318" y="660"/>
      <point x="439" y="660" type="curve" smooth="yes"/>
      <point x="545" y="660"/>
      <point x="619" y="577"/>
      <point x="619" y="476" type="curve" smooth="yes"/>
      <point x="619" y="352"/>
      <point x="508" y="240"/>
    </contour>
  </outline>
</glyph>
<glyph name="section" format="2">
  <advance width="750"/>
  <unicode hex="00A7"/>
  <outline>
    <contour>
      <point x="281" y="-192" type="curve" smooth="yes"/>
      <point x="420" y="-192"/>
      <point x="538" y="-81"/>
      <point x="538" y="45" type="curve" smooth="yes"/>
      <point x="538" y="106"/>
      <point x="511" y="156"/>
      <point x="458" y="199" type="curve"/>
      <point x="436" y="180" type="line"/>
      <point x="574" y="174"/>
      <point x="696" y="277"/>
      <point x="696" y="407" type="curve" smooth="yes"/>
      <point x="696" y="478"/>
      <point x="660" y="536"/>
      <point x="592" y="581" type="curve" smooth="yes"/>
      <point x="453" y="672" type="line" smooth="yes"/>
      <point x="416" y="696"/>
      <point x="392" y="734"/>
      <point x="392" y="774" type="curve" smooth="yes"/>
      <point x="392" y="832"/>
      <point x="444" y="881"/>
      <point x="509" y="881" type="curve" smooth="yes"/>
      <point x="574" y="881"/>
      <point x="635" y="833"/>
      <point x="651" y="767" type="curve"/>
      <point x="720" y="870" type="line"/>
      <point x="683" y="931"/>
      <point x="599" y="972"/>
      <point x="518" y="972" type="curve" smooth="yes"/>
      <point x="392" y="972"/>
      <point x="286" y="871"/>
      <point x="286" y="756" type="curve" smooth="yes"/>
      <point x="286" y="702"/>
      <point x="309" y="656"/>
      <point x="351" y="622" type="curve"/>
      <point x="378" y="644" type="line"/>
      <point x="230" y="648"/>
      <point x="110" y="544"/>
      <point x="110" y="415" type="curve" smooth="yes"/>
      <point x="110" y="344"/>
      <point x="147" y="287"/>
      <point x="214" y="242" type="curve" smooth="yes"/>
      <point x="359" y="144" type="line" smooth="yes"/>
      <point x="404" y="114"/>
      <point x="432" y="71"/>
      <point x="432" y="27" type="curve" smooth="yes"/>
      <point x="432" y="-39"/>
      <point x="369" y="-98"/>
      <point x="291" y="-98" type="curve" smooth="yes"/>
      <point x="212" y="-98"/>
      <point x="143" y="-36"/>
      <point x="133" y="46" type="curve"/>
      <point x="59" y="-64" type="line"/>
      <point x="95" y="-141"/>
      <point x="186" y="-192"/>
    </contour>
    <contour>
      <point x="443" y="251" type="curve" smooth="yes"/>
      <point x="423" y="251"/>
      <point x="400" y="255"/>
      <point x="382" y="263" type="curve"/>
      <point x="346" y="282"/>
      <point x="320" y="299"/>
      <point x="297" y="317" type="curve" smooth="yes"/>
      <point x="238" y="363"/>
      <point x="217" y="393"/>
      <point x="217" y="436" type="curve" smooth="yes"/>
      <point x="217" y="509"/>
      <point x="282" y="571"/>
      <point x="358" y="571" type="curve" smooth="yes"/>
      <point x="383" y="571"/>
      <point x="410" y="565"/>
      <point x="427" y="557" type="curve" smooth="yes"/>
      <point x="449" y="547"/>
      <point x="496" y="514"/>
      <point x="507" y="506" type="curve" smooth="yes"/>
      <point x="559" y="469"/>
      <point x="589" y="437"/>
      <point x="589" y="388" type="curve" smooth="yes"/>
      <point x="589" y="318"/>
      <point x="527" y="251"/>
    </contour>
  </outline>
</glyph>
<glyph name="copyright" format="2">
  <advance width="1260"/>
  <unicode hex="00A9"/>
  <outline>
    <contour>
      <point x="579" y="-192" type="curve" smooth="yes"/>
      <point x="906" y="-192"/>
      <point x="1202" y="102"/>
      <point x="1202" y="425" type="curve" smooth="yes"/>
      <point x="1202" y="700"/>
      <point x="988" y="912"/>
      <point x="709" y="912" type="curve" smooth="yes"/>
      <point x="382" y="912"/>
      <point x="86" y="618"/>
      <point x="86" y="295" type="curve" smooth="yes"/>
      <point x="86" y="20"/>
      <point x="300" y="-192"/>
    </contour>
    <contour>
      <point x="635" y="78" type="curve" smooth="yes"/>
      <point x="708" y="78"/>
      <point x="773" y="102"/>
      <point x="826" y="142" type="curve"/>
      <point x="826" y="273" type="line"/>
      <point x="788" y="213"/>
      <point x="720" y="170"/>
      <point x="645" y="170" type="curve" smooth="yes"/>
      <point x="543" y="170"/>
      <point x="476" y="245"/>
      <point x="476" y="337" type="curve" smooth="yes"/>
      <point x="476" y="449"/>
      <point x="577" y="550"/>
      <point x="692" y="550" type="curve" smooth="yes"/>
      <point x="767" y="550"/>
      <point x="821" y="510"/>
      <point x="845" y="454" type="curve"/>
      <point x="897" y="560" type="line"/>
      <point x="851" y="610"/>
      <point x="783" y="642"/>
      <point x="707" y="642" type="curve" smooth="yes"/>
      <point x="533" y="642"/>
      <point x="377" y="493"/>
      <point x="377" y="327" type="curve" smooth="yes"/>
      <point x="377" y="185"/>
      <point x="489" y="78"/>
    </contour>
    <contour>
      <point x="586" y="-102" type="curve" smooth="yes"/>
      <point x="357" y="-102"/>
      <point x="182" y="71"/>
      <point x="182" y="300" type="curve" smooth="yes"/>
      <point x="182" y="573"/>
      <point x="429" y="822"/>
      <point x="702" y="822" type="curve" smooth="yes"/>
      <point x="931" y="822"/>
      <point x="1106" y="649"/>
      <point x="1106" y="420" type="curve" smooth="yes"/>
      <point x="1106" y="147"/>
      <point x="859" y="-102"/>
    </contour>
  </outline>
</glyph>
<glyph name="guillemetleft" format="2">
  <advance width="600"/>
  <unicode hex="00AB"/>
  <outline>
    <contour>
      <point x="394" y="60" type="line"/>
      <point x="492" y="60" type="line"/>
      <point x="389" y="300" type="line"/>
      <point x="610" y="540" type="line"/>
      <point x="492" y="540" type="line"/>
      <point x="285" y="315" type="line"/>
    </contour>
    <contour>
      <point x="164" y="60" type="line"/>
      <point x="262" y="60" type="line"/>
      <point x="149" y="324" type="line"/>
      <point x="348" y="540" type="line"/>
      <point x="230" y="540" type="line"/>
      <point x="45" y="339" type="line"/>
    </contour>
  </outline>
</glyph>
<glyph name="registered" format="2">
  <advance width="600"/>
  <unicode hex="00AE"/>
  <outline>
    <contour>
      <point x="359" y="402" type="curve" smooth="yes"/>
      <point x="514" y="402"/>
      <point x="654" y="538"/>
      <point x="654" y="691" type="curve" smooth="yes"/>
      <point x="654" y="820"/>
      <point x="550" y="918"/>
      <point x="421" y="918" type="curve" smooth="yes"/>
      <point x="266" y="918"/>
      <point x="126" y="782"/>
      <point x="126" y="629" type="curve" smooth="yes"/>
      <point x="126" y="500"/>
      <point x="230" y="402"/>
    </contour>
    <contour>
      <point x="365" y="462" type="curve" smooth="yes"/>
      <point x="263" y="462"/>
      <point x="192" y="540"/>
      <point x="192" y="636" type="curve" smooth="yes"/>
      <point x="192" y="752"/>
      <point x="299" y="858"/>
      <point x="415" y="858" type="curve" smooth="yes"/>
      <point x="517" y="858"/>
      <point x="588" y="780"/>
      <point x="588" y="684" type="curve" smooth="yes"/>
      <point x="588" y="568"/>
      <point x="481" y="462"/>
    </contour>
    <contour>
      <point x="271" y="546" type="line"/>
      <point x="331" y="546" type="line"/>
      <point x="391" y="786" type="line"/>
      <point x="330" y="786" type="line"/>
    </contour>
    <contour>
      <point x="413" y="546" type="line"/>
      <point x="476" y="546" type="line"/>
      <point x="432" y="659" type="line"/>
      <point x="371" y="659" type="line"/>
    </contour>
    <contour>
      <point x="320" y="617" type="line"/>
      <point x="402" y="617" type="line" smooth="yes"/>
      <point x="455" y="617"/>
      <point x="502" y="662"/>
      <point x="502" y="711" type="curve" smooth="yes"/>
      <point x="502" y="754"/>
      <point x="468" y="786"/>
      <point x="422" y="786" type="curve" smooth="yes"/>
      <point x="361" y="786" type="line"/>
      <point x="349" y="736" type="line"/>
      <point x="405" y="736" type="line" smooth="yes"/>
      <point x="427" y="736"/>
      <point x="441" y="724"/>
      <point x="441" y="706" type="curve" smooth="yes"/>
      <point x="441" y="684"/>
      <point x="421" y="665"/>
      <point x="396" y="665" type="curve" smooth="yes"/>
      <point x="331" y="665" type="line"/>
    </contour>
  </outline>
</glyph>
<glyph name="micro" format="2">
  <advance width="750"/>
  <unicode hex="00B5"/>
  <unicode hex="03BC"/>
  <outline>
    <contour>
      <point x="-65" y="-300" type="line"/>
      <point x="43" y="-300" type="line"/>
      <point x="146" y="113" type="line"/>
      <point x="132" y="92" type="line"/>
      <point x="155" y="25"/>
      <point x="211" y="-12"/>
      <point x="283" y="-12" type="curve" smooth="yes"/>
      <point x="367" y="-12"/>
      <point x="458" y="39"/>
      <point x="515" y="134" type="curve"/>
      <point x="479" y="135" type="line"/>
      <point x="473" y="41"/>
      <point x="527" y="-12"/>
      <point x="614" y="-12" type="curve"/>
      <point x="659" y="81" type="line"/>
      <point x="608" y="81"/>
      <point x="578" y="105"/>
      <point x="596" y="178" type="curve" smooth="yes"/>
      <point x="700" y="600" type="line"/>
      <point x="592" y="600" type="line"/>
      <point x="510" y="267" type="line" smooth="yes"/>
      <point x="482" y="152"/>
      <point x="388" y="90"/>
      <point x="304" y="90" type="curve" smooth="yes"/>
      <point x="201" y="90"/>
      <point x="164" y="175"/>
      <point x="187" y="270" type="curve" smooth="yes"/>
      <point x="268" y="600" type="line"/>
      <point x="160" y="600" type="line"/>
    </contour>
  </outline>
</glyph>
<glyph name="ordmasculine" format="2">
  <advance width="480"/>
  <unicode hex="00BA"/>
  <outline>
    <contour>
      <point x="293" y="408" type="curve" smooth="yes"/>
      <point x="410" y="408"/>
      <point x="513" y="507"/>
      <point x="513" y="621" type="curve" smooth="yes"/>
      <point x="513" y="719"/>
      <point x="437" y="792"/>
      <point x="336" y="792" type="curve" smooth="yes"/>
      <point x="219" y="792"/>
      <point x="117" y="692"/>
      <point x="117" y="579" type="curve" smooth="yes"/>
      <point x="117" y="482"/>
      <point x="193" y="408"/>
    </contour>
    <contour>
      <point x="303" y="489" type="curve" smooth="yes"/>
      <point x="244" y="489"/>
      <point x="201" y="532"/>
      <point x="201" y="589" type="curve" smooth="yes"/>
      <point x="201" y="654"/>
      <point x="260" y="711"/>
      <point x="328" y="711" type="curve" smooth="yes"/>
      <point x="386" y="711"/>
      <point x="430" y="667"/>
      <point x="430" y="611" type="curve" smooth="yes"/>
      <point x="430" y="547"/>
      <point x="370" y="489"/>
    </contour>
  </outline>
</glyph>
<glyph name="germandbls" format="2">
  <advance width="690"/>
  <unicode hex="00DF"/>
  <outline>
    <contour>
      <point x="284" y="-12" type="line"/>
      <point x="487" y="-10"/>
      <point x="669" y="165"/>
      <point x="669" y="359" type="curve" smooth="yes"/>
      <point x="669" y="456"/>
      <point x="623" y="540"/>
      <point x="542" y="591" type="curve"/>
      <point x="545" y="575" type="line"/>
      <point x="629" y="624"/>
      <point x="676" y="697"/>
      <point x="676" y="778" type="curve" smooth="yes"/>
      <point x="676" y="890"/>
      <point x="589" y="972"/>
      <point x="468" y="972" type="curve" smooth="yes"/>
      <point x="343" y="972"/>
      <point x="241" y="885"/>
      <point x="207" y="747" type="curve" smooth="yes"/>
      <point x="21" y="0" type="line"/>
      <point x="129" y="0" type="line"/>
      <point x="312" y="734" type="line" smooth="yes"/>
      <point x="333" y="817"/>
      <point x="391" y="876"/>
      <point x="459" y="876" type="curve" smooth="yes"/>
      <point x="523" y="876"/>
      <point x="568" y="834"/>
      <point x="568" y="768" type="curve" smooth="yes"/>
      <point x="568" y="689"/>
      <point x="499" y="619"/>
      <point x="376" y="579" type="curve"/>
      <point x="498" y="514"/>
      <point x="555" y="442"/>
      <point x="555" y="347" type="curve" smooth="yes"/>
      <point x="555" y="205"/>
      <point x="428" y="84"/>
      <point x="284" y="84" type="curve"/>
    </contour>
  </outline>
</glyph>
<glyph name="eth" format="2">
  <advance width="740"/>
  <unicode hex="00F0"/>
  <outline>
    <contour>
      <point x="334" y="-12" type="curve" smooth="yes"/>
      <point x="543" y="-12"/>
      <point x="692" y="176"/>
      <point x="692" y="370" type="curve" smooth="yes"/>
      <point x="692" y="428"/>
      <point x="680" y="490"/>
      <point x="653" y="562" type="curve" smooth="yes"/>
      <point x="622" y="644"/>
      <point x="538" y="826"/>
      <point x="464" y="960" type="curve"/>
      <point x="351" y="960" type="line"/>
      <point x="436" y="806"/>
      <point x="516" y="653"/>
      <point x="573" y="502" type="curve"/>
      <point x="580" y="500" type="line"/>
      <point x="544" y="578"/>
      <point x="464" y="606"/>
      <point x="392" y="606" type="curve" smooth="yes"/>
      <point x="217" y="606"/>
      <point x="55" y="446"/>
      <point x="55" y="266" type="curve" smooth="yes"/>
      <point x="55" y="106"/>
      <point x="179" y="-12"/>
    </contour>
    <contour>
      <point x="343" y="90" type="curve" smooth="yes"/>
      <point x="237" y="90"/>
      <point x="165" y="176"/>
      <point x="165" y="276" type="curve" smooth="yes"/>
      <point x="165" y="401"/>
      <point x="271" y="510"/>
      <point x="396" y="510" type="curve" smooth="yes"/>
      <point x="501" y="510"/>
      <point x="578" y="429"/>
      <point x="578" y="329" type="curve" smooth="yes"/>
      <point x="578" y="203"/>
      <point x="464" y="90"/>
    </contour>
    <contour>
      <point x="302" y="688" type="line"/>
      <point x="686" y="863" type="line"/>
      <point x="662" y="926" type="line"/>
      <point x="279" y="751" type="line"/>
    </contour>
  </outline>
</glyph>
<glyph name="thorn" format="2">
  <advance width="760"/>
  <unicode hex="00FE"/>
  <outline>
    <contour>
      <point x="-54" y="-300" type="line"/>
      <point x="54" y="-300" type="line"/>
      <point x="166" y="147" type="line"/>
      <point x="117" y="151" type="line"/>
      <point x="159" y="55"/>
      <point x="253" y="-8"/>
      <point x="364" y="-8" type="curve" smooth="yes"/>
      <point x="544" y="-8"/>
      <point x="706" y="155"/>
      <point x="706" y="337" type="curve" smooth="yes"/>
      <point x="706" y="492"/>
      <point x="587" y="608"/>
      <point x="449" y="608" type="curve" smooth="yes"/>
      <point x="358" y="608"/>
      <point x="276" y="558"/>
      <point x="222" y="488" type="curve"/>
      <point x="240" y="450" type="line"/>
      <point x="369" y="960" type="line"/>
      <point x="261" y="960" type="line"/>
    </contour>
    <contour>
      <point x="365" y="90" type="curve" smooth="yes"/>
      <point x="260" y="90"/>
      <point x="188" y="175"/>
      <point x="188" y="274" type="curve" smooth="yes"/>
      <point x="188" y="397"/>
      <point x="299" y="510"/>
      <point x="419" y="510" type="curve" smooth="yes"/>
      <point x="524" y="510"/>
      <point x="596" y="425"/>
      <point x="596" y="326" type="curve" smooth="yes"/>
      <point x="596" y="203"/>
      <point x="485" y="90"/>
    </contour>
  </outline>
</glyph>
<glyph name="Schwa" format="2">
  <advance width="1050"/>
  <unicode hex="018F"/>
  <outline>
    <contour>
      <point x="498" y="-14" type="curve" smooth="yes"/>
      <point x="774" y="-14"/>
      <point x="1026" y="227"/>
      <point x="1026" y="506" type="curve" smooth="yes"/>
      <point x="1026" y="742"/>
      <point x="842" y="915"/>
      <point x="611" y="915" type="curve" smooth="yes"/>
      <point x="505" y="915"/>
      <point x="400" y="880"/>
      <point x="312" y="820" type="curve"/>
      <point x="312" y="680" type="line"/>
      <point x="387" y="759"/>
      <point x="491" y="808"/>
      <point x="599" y="808" type="curve" smooth="yes"/>
      <point x="773" y="808"/>
      <point x="907" y="677"/>
      <point x="907" y="498" type="curve" smooth="yes"/>
      <point x="907" y="287"/>
      <point x="723" y="93"/>
      <point x="510" y="93" type="curve" smooth="yes"/>
      <point x="298" y="93"/>
      <point x="155" y="266"/>
      <point x="211" y="493" type="curve"/>
      <point x="147" y="408" type="line"/>
      <point x="772" y="408" type="line" smooth="yes"/>
      <point x="829" y="408"/>
      <point x="889" y="416"/>
      <point x="949" y="428" type="curve"/>
      <point x="964" y="490" type="line"/>
      <point x="910" y="502"/>
      <point x="854" y="510"/>
      <point x="797" y="510" type="curve" smooth="yes"/>
      <point x="102" y="510" type="line"/>
      <point x="95" y="482" type="line" smooth="yes"/>
      <point x="24" y="197"/>
      <point x="241" y="-14"/>
    </contour>
  </outline>
</glyph>
<glyph name="Ohorn" format="2">
  <advance width="1060"/>
  <unicode hex="01A0"/>
  <anchor x="456" y="0" name="bottom"/>
  <anchor x="456" y="0" name="ogonek"/>
  <anchor x="678" y="900" name="top"/>
  <outline>
    <contour>
      <point x="512" y="-18" type="curve" smooth="yes"/>
      <point x="787" y="-18"/>
      <point x="1036" y="231"/>
      <point x="1036" y="505" type="curve" smooth="yes"/>
      <point x="1036" y="738"/>
      <point x="856" y="918"/>
      <point x="622" y="918" type="curve" smooth="yes"/>
      <point x="347" y="918"/>
      <point x="98" y="669"/>
      <point x="98" y="395" type="curve" smooth="yes"/>
      <point x="98" y="162"/>
      <point x="278" y="-18"/>
    </contour>
    <contour>
      <point x="523" y="90" type="curve" smooth="yes"/>
      <point x="349" y="90"/>
      <point x="216" y="225"/>
      <point x="216" y="403" type="curve" smooth="yes"/>
      <point x="216" y="616"/>
      <point x="404" y="810"/>
      <point x="611" y="810" type="curve" smooth="yes"/>
      <point x="785" y="810"/>
      <point x="918" y="675"/>
      <point x="918" y="497" type="curve" smooth="yes"/>
      <point x="918" y="284"/>
      <point x="730" y="90"/>
    </contour>
    <contour>
      <point x="954" y="698" type="line"/>
      <point x="1062" y="698"/>
      <point x="1152" y="808"/>
      <point x="1152" y="914" type="curve" smooth="yes"/>
      <point x="1152" y="929"/>
      <point x="1150" y="944"/>
      <point x="1144" y="960" type="curve"/>
      <point x="1048" y="960" type="line"/>
      <point x="1053" y="944"/>
      <point x="1055" y="927"/>
      <point x="1055" y="912" type="curve" smooth="yes"/>
      <point x="1055" y="854"/>
      <point x="1023" y="776"/>
      <point x="929" y="776" type="curve"/>
    </contour>
  </outline>
</glyph>
<glyph name="ohorn" format="2">
  <advance width="770"/>
  <unicode hex="01A1"/>
  <anchor x="296" y="0" name="bottom"/>
  <anchor x="444" y="600" name="top"/>
  <outline>
    <contour>
      <point x="333" y="-12" type="curve" smooth="yes"/>
      <point x="519" y="-12"/>
      <point x="686" y="153"/>
      <point x="686" y="337" type="curve" smooth="yes"/>
      <point x="686" y="494"/>
      <point x="562" y="612"/>
      <point x="407" y="612" type="curve" smooth="yes"/>
      <point x="221" y="612"/>
      <point x="54" y="447"/>
      <point x="54" y="263" type="curve" smooth="yes"/>
      <point x="54" y="106"/>
      <point x="178" y="-12"/>
    </contour>
    <contour>
      <point x="344" y="90" type="curve" smooth="yes"/>
      <point x="238" y="90"/>
      <point x="164" y="173"/>
      <point x="164" y="274" type="curve" smooth="yes"/>
      <point x="164" y="398"/>
      <point x="275" y="510"/>
      <point x="396" y="510" type="curve" smooth="yes"/>
      <point x="502" y="510"/>
      <point x="576" y="427"/>
      <point x="576" y="326" type="curve" smooth="yes"/>
      <point x="576" y="202"/>
      <point x="465" y="90"/>
    </contour>
    <contour>
      <point x="620" y="398" type="line"/>
      <point x="731" y="398"/>
      <point x="818" y="510"/>
      <point x="818" y="615" type="curve" smooth="yes"/>
      <point x="818" y="630"/>
      <point x="816" y="645"/>
      <point x="811" y="660" type="curve"/>
      <point x="721" y="660" type="line"/>
      <point x="726" y="645"/>
      <point x="728" y="629"/>
      <point x="728" y="615" type="curve" smooth="yes"/>
      <point x="728" y="557"/>
      <point x="697" y="476"/>
      <point x="621" y="476" type="curve"/>
    </contour>
  </outline>
</glyph>
<glyph name="gravecomb" format="2">
  <unicode hex="0300"/>
  <anchor x="497" y="600" name="_top"/>
  <outline>
    <contour>
      <point x="482" y="690" type="line"/>
      <point x="557" y="690" type="line"/>
      <point x="503" y="900" type="line"/>
      <point x="388" y="900" type="line"/>
    </contour>
  </outline>
</glyph>
<glyph name="tildecomb" format="2">
  <unicode hex="0303"/>
  <anchor x="435" y="600" name="_top"/>
  <outline>
    <contour>
      <point x="295" y="683" type="line"/>
      <point x="315" y="731"/>
      <point x="346" y="759"/>
      <point x="391" y="759" type="curve" smooth="yes"/>
      <point x="448" y="759"/>
      <point x="506" y="705"/>
      <point x="573" y="705" type="curve" smooth="yes"/>
      <point x="626" y="705"/>
      <point x="668" y="733"/>
      <point x="695" y="786" type="curve"/>
      <point x="663" y="877" type="line"/>
      <point x="643" y="829"/>
      <point x="612" y="801"/>
      <point x="567" y="801" type="curve" smooth="yes"/>
      <point x="510" y="801"/>
      <point x="452" y="855"/>
      <point x="385" y="855" type="curve" smooth="yes"/>
      <point x="332" y="855"/>
      <point x="290" y="827"/>
      <point x="263" y="774" type="curve"/>
    </contour>
  </outline>
</glyph>
<glyph name="hookabovecomb" format="2">
  <unicode hex="0309"/>
  <anchor x="436" y="600" name="_top"/>
  <outline>
    <contour>
      <point x="418" y="690" type="curve"/>
      <point x="528" y="690" type="line"/>
      <point x="567" y="723"/>
      <point x="595" y="758"/>
      <point x="595" y="807" type="curve" smooth="yes"/>
      <point x="595" y="868"/>
      <point x="539" y="909"/>
      <point x="469" y="909" type="curve" smooth="yes"/>
      <point x="440" y="909"/>
      <point x="410" y="903"/>
      <point x="383" y="888" type="curve"/>
      <point x="384" y="805" type="line"/>
      <point x="401" y="820"/>
      <point x="425" y="833"/>
      <point x="450" y="833" type="curve" smooth="yes"/>
      <point x="481" y="833"/>
      <point x="501" y="816"/>
      <point x="501" y="791" type="curve" smooth="yes"/>
      <point x="501" y="762"/>
      <point x="472" y="733"/>
    </contour>
  </outline>
</glyph>
<glyph name="horncomb" format="2">
  <unicode hex="031B"/>
  <anchor x="311" y="600" name="_topright"/>
  <outline>
    <contour>
      <point x="358" y="398" type="curve" smooth="yes"/>
      <point x="437" y="398"/>
      <point x="523" y="459"/>
      <point x="549" y="565" type="curve" smooth="yes"/>
      <point x="572" y="660" type="line"/>
      <point x="476" y="660" type="line"/>
      <point x="452" y="561" type="line" smooth="yes"/>
      <point x="441" y="516"/>
      <point x="403" y="476"/>
      <point x="353" y="476" type="curve" smooth="yes"/>
      <point x="321" y="476"/>
      <point x="296" y="494"/>
      <point x="294" y="529" type="curve"/>
      <point x="270" y="433" type="line"/>
      <point x="291" y="410"/>
      <point x="322" y="398"/>
    </contour>
  </outline>
</glyph>
<glyph name="brevebelowcomb" format="2">
  <unicode hex="032E"/>
  <anchor x="285" y="0" name="_bottom"/>
  <anchor x="360" y="-249" name="bottom"/>
  <outline>
    <contour>
      <point x="250" y="-249" type="curve" smooth="yes"/>
      <point x="350" y="-249"/>
      <point x="433" y="-175"/>
      <point x="448" y="-75" type="curve"/>
      <point x="359" y="-75" type="line"/>
      <point x="356" y="-121"/>
      <point x="302" y="-167"/>
      <point x="253" y="-167" type="curve" smooth="yes"/>
      <point x="204" y="-167"/>
      <point x="167" y="-124"/>
      <point x="174" y="-75" type="curve"/>
      <point x="85" y="-75" type="line"/>
      <point x="75" y="-174"/>
      <point x="146" y="-249"/>
    </contour>
  </outline>
</glyph>
<glyph name="emdash" format="2">
  <advance width="1440"/>
  <unicode hex="2014"/>
  <outline>
    <contour>
      <point x="47" y="249" type="line"/>
      <point x="1367" y="249" type="line"/>
      <point x="1393" y="351" type="line"/>
      <point x="73" y="351" type="line"/>
    </contour>
  </outline>
</glyph>
<glyph name="quoteleft" format="2">
  <advance width="270"/>
  <unicode hex="2018"/>
  <outline>
    <contour>
      <point x="131" y="600" type="curve"/>
      <point x="239" y="600" type="line"/>
      <point x="271" y="728"/>
      <point x="335" y="826"/>
      <point x="413" y="900" type="curve"/>
      <point x="293" y="900" type="line"/>
      <point x="217" y="815"/>
      <point x="159" y="714"/>
    </contour>
  </outline>
</glyph>
<glyph name="dagger" format="2">
  <advance width="600"/>
  <unicode hex="2020"/>
  <outline>
    <contour>
      <point x="173" y="0" type="line"/>
      <point x="281" y="0" type="line"/>
      <point x="435" y="654" type="line"/>
      <point x="378" y="588" type="line"/>
      <point x="599" y="585" type="line"/>
      <point x="621" y="675" type="line"/>
      <point x="440" y="672" type="line"/>
      <point x="503" y="900" type="line"/>
      <point x="395" y="900" type="line"/>
      <point x="346" y="672" type="line"/>
      <point x="165" y="675" type="line"/>
      <point x="143" y="585" type="line"/>
      <point x="366" y="588" type="line"/>
      <point x="341" y="654" type="line"/>
    </contour>
  </outline>
</glyph>
<glyph name="daggerdbl" format="2">
  <advance width="600"/>
  <unicode hex="2021"/>
  <outline>
    <contour>
      <point x="171" y="0" type="line"/>
      <point x="279" y="0" type="line"/>
      <point x="328" y="228" type="line"/>
      <point x="509" y="225" type="line"/>
      <point x="531" y="315" type="line"/>
      <point x="308" y="312" type="line"/>
      <point x="333" y="246" type="line"/>
      <point x="387" y="450" type="line"/>
      <point x="433" y="654" type="line"/>
      <point x="376" y="588" type="line"/>
      <point x="597" y="585" type="line"/>
      <point x="619" y="675" type="line"/>
      <point x="438" y="672" type="line"/>
      <point x="501" y="900" type="line"/>
      <point x="393" y="900" type="line"/>
      <point x="344" y="672" type="line"/>
      <point x="163" y="675" type="line"/>
      <point x="141" y="585" type="line"/>
      <point x="364" y="588" type="line"/>
      <point x="339" y="654" type="line"/>
      <point x="285" y="450" type="line"/>
      <point x="239" y="246" type="line"/>
      <point x="296" y="312" type="line"/>
      <point x="75" y="315" type="line"/>
      <point x="53" y="225" type="line"/>
      <point x="234" y="228" type="line"/>
    </contour>
  </outline>
</glyph>
<glyph name="guilsinglleft" format="2">
  <advance width="360"/>
  <unicode hex="2039"/>
  <outline>
    <contour>
      <point x="154" y="60" type="line"/>
      <point x="252" y="60" type="line"/>
      <point x="149" y="300" type="line"/>
      <point x="370" y="540" type="line"/>
      <point x="252" y="540" type="line"/>
      <point x="45" y="315" type="line"/>
    </contour>
  </outline>
</glyph>
<glyph name="guilsinglright" format="2">
  <advance width="360"/>
  <unicode hex="203A"/>
  <outline>
    <contour>
      <point x="-12" y="60" type="line"/>
      <point x="106" y="60" type="line"/>
      <point x="313" y="285" type="line"/>
      <point x="204" y="540" type="line"/>
      <point x="106" y="540" type="line"/>
      <point x="209" y="300" type="line"/>
    </contour>
  </outline>
</glyph>
<glyph name="euro" format="2">
  <advance width="750"/>
  <unicode hex="20AC"/>
  <outline>
    <contour>
      <point x="453" y="-12" type="curve" smooth="yes"/>
      <point x="515" y="-12"/>
      <point x="571" y="10"/>
      <point x="626" y="52" type="curve"/>
      <point x="627" y="193" type="line"/>
      <point x="577" y="129"/>
      <point x="522" y="90"/>
      <point x="463" y="90" type="curve" smooth="yes"/>
      <point x="363" y="90"/>
      <point x="324" y="201"/>
      <point x="324" y="310" type="curve" smooth="yes"/>
      <point x="324" y="492"/>
      <point x="432" y="804"/>
      <point x="608" y="804" type="curve" smooth="yes"/>
      <point x="684" y="804"/>
      <point x="729" y="746"/>
      <point x="745" y="668" type="curve"/>
      <point x="813" y="800" type="line"/>
      <point x="765" y="875"/>
      <point x="692" y="906"/>
      <point x="617" y="906" type="curve" smooth="yes"/>
      <point x="364" y="906"/>
      <point x="210" y="552"/>
      <point x="210" y="311" type="curve" smooth="yes"/>
      <point x="210" y="134"/>
      <point x="293" y="-12"/>
    </contour>
    <contour>
      <point x="94" y="318" type="line"/>
      <point x="544" y="318" type="line"/>
      <point x="564" y="402" type="line"/>
      <point x="114" y="402" type="line"/>
    </contour>
    <contour>
      <point x="138" y="498" type="line"/>
      <point x="588" y="498" type="line"/>
      <point x="608" y="582" type="line"/>
      <point x="158" y="582" type="line"/>
    </contour>
  </outline>
</glyph>
<glyph name="careof" format="2">
  <advance width="960"/>
  <unicode hex="2105"/>
  <outline>
    <contour>
      <point x="12" y="0" type="line"/>
      <point x="112" y="0" type="line"/>
      <point x="942" y="900" type="line"/>
      <point x="842" y="900" type="line"/>
    </contour>
    <contour>
      <point x="666" y="-12" type="curve" smooth="yes"/>
      <point x="787" y="-12"/>
      <point x="890" y="90"/>
      <point x="890" y="202" type="curve" smooth="yes"/>
      <point x="890" y="296"/>
      <point x="818" y="372"/>
      <point x="713" y="372" type="curve" smooth="yes"/>
      <point x="590" y="372"/>
      <point x="488" y="268"/>
      <point x="488" y="158" type="curve" smooth="yes"/>
      <point x="488" y="65"/>
      <point x="561" y="-12"/>
    </contour>
    <contour>
      <point x="674" y="68" type="curve" smooth="yes"/>
      <point x="614" y="68"/>
      <point x="574" y="112"/>
      <point x="574" y="166" type="curve" smooth="yes"/>
      <point x="574" y="233"/>
      <point x="635" y="292"/>
      <point x="703" y="292" type="curve" smooth="yes"/>
      <point x="762" y="292"/>
      <point x="805" y="248"/>
      <point x="805" y="192" type="curve" smooth="yes"/>
      <point x="805" y="125"/>
      <point x="742" y="68"/>
    </contour>
    <contour>
      <point x="326" y="528" type="curve" smooth="yes"/>
      <point x="358" y="528"/>
      <point x="389" y="536"/>
      <point x="418" y="549" type="curve"/>
      <point x="418" y="635" type="line"/>
      <point x="397" y="618"/>
      <point x="369" y="608"/>
      <point x="339" y="608" type="curve" smooth="yes"/>
      <point x="277" y="608"/>
      <point x="234" y="651"/>
      <point x="234" y="708" type="curve" smooth="yes"/>
      <point x="234" y="775"/>
      <point x="294" y="829"/>
      <point x="361" y="829" type="curve" smooth="yes"/>
      <point x="403" y="829"/>
      <point x="438" y="808"/>
      <point x="454" y="781" type="curve"/>
      <point x="495" y="861" type="line"/>
      <point x="464" y="890"/>
      <point x="420" y="909"/>
      <point x="367" y="909" type="curve" smooth="yes"/>
      <point x="251" y="909"/>
      <point x="148" y="809"/>
      <point x="148" y="698" type="curve" smooth="yes"/>
      <point x="148" y="604"/>
      <point x="223" y="528"/>
    </contour>
  </outline>
</glyph>
<glyph name="trademark" format="2">
  <advance width="840"/>
  <unicode hex="2122"/>
  <outline>
    <contour>
      <point x="457" y="540" type="line"/>
      <point x="535" y="540" type="line"/>
      <point x="555" y="624" type="line" smooth="yes"/>
      <point x="563" y="656"/>
      <point x="568" y="677"/>
      <point x="572" y="695" type="curve"/>
      <point x="577" y="684"/>
      <point x="583" y="670"/>
      <point x="594" y="649" type="curve" smooth="yes"/>
      <point x="648" y="546" type="line"/>
      <point x="754" y="650" type="line" smooth="yes"/>
      <point x="772" y="668"/>
      <point x="784" y="681"/>
      <point x="795" y="691" type="curve"/>
      <point x="790" y="674"/>
      <point x="784" y="653"/>
      <point x="777" y="624" type="curve" smooth="yes"/>
      <point x="757" y="540" type="line"/>
      <point x="841" y="540" type="line"/>
      <point x="940" y="946" type="line"/>
      <point x="670" y="667" type="line"/>
      <point x="550" y="917" type="line"/>
    </contour>
    <contour>
      <point x="199" y="540" type="line"/>
      <point x="283" y="540" type="line"/>
      <point x="352" y="822" type="line"/>
      <point x="454" y="822" type="line"/>
      <point x="473" y="900" type="line"/>
      <point x="185" y="900" type="line"/>
      <point x="166" y="822" type="line"/>
      <point x="268" y="822" type="line"/>
    </contour>
  </outline>
</glyph>
<glyph name="dek" format="2">
  <advance width="750"/>
  <unicode hex="218A"/>
  <outline>
    <contour>
      <point x="342" y="-7" type="curve" smooth="yes"/>
      <point x="497" y="-7"/>
      <point x="635" y="125"/>
      <point x="635" y="273" type="curve" smooth="yes"/>
      <point x="635" y="302"/>
      <point x="629" y="333"/>
      <point x="618" y="366" type="curve"/>
      <point x="482" y="366" type="line"/>
      <point x="511" y="337"/>
      <point x="527" y="302"/>
      <point x="527" y="265" type="curve" smooth="yes"/>
      <point x="527" y="176"/>
      <point x="443" y="94"/>
      <point x="352" y="94" type="curve" smooth="yes"/>
      <point x="274" y="94"/>
      <point x="215" y="153"/>
      <point x="215" y="231" type="curve" smooth="yes"/>
      <point x="215" y="279"/>
      <point x="235" y="317"/>
      <point x="292" y="378" type="curve" smooth="yes"/>
      <point x="781" y="900" type="line"/>
      <point x="251" y="900" type="line"/>
      <point x="226" y="798" type="line"/>
      <point x="614" y="798" type="line"/>
      <point x="599" y="835" type="line"/>
      <point x="218" y="446" type="line" smooth="yes"/>
      <point x="140" y="366"/>
      <point x="105" y="295"/>
      <point x="105" y="219" type="curve" smooth="yes"/>
      <point x="105" y="91"/>
      <point x="208" y="-7"/>
    </contour>
  </outline>
</glyph>
<glyph name="approxequal" format="2">
  <advance width="750"/>
  <unicode hex="2248"/>
  <outline>
    <contour>
      <point x="138" y="471" type="line"/>
      <point x="180" y="529"/>
      <point x="231" y="568"/>
      <point x="290" y="568" type="curve" smooth="yes"/>
      <point x="393" y="568"/>
      <point x="458" y="480"/>
      <point x="583" y="480" type="curve" smooth="yes"/>
      <point x="653" y="480"/>
      <point x="722" y="515"/>
      <point x="771" y="581" type="curve"/>
      <point x="745" y="669" type="line"/>
      <point x="703" y="611"/>
      <point x="653" y="572"/>
      <point x="595" y="572" type="curve" smooth="yes"/>
      <point x="490" y="572"/>
      <point x="424" y="660"/>
      <point x="298" y="660" type="curve" smooth="yes"/>
      <point x="229" y="660"/>
      <point x="160" y="624"/>
      <point x="112" y="558" type="curve"/>
    </contour>
    <contour>
      <point x="78" y="231" type="line"/>
      <point x="120" y="289"/>
      <point x="171" y="328"/>
      <point x="230" y="328" type="curve" smooth="yes"/>
      <point x="333" y="328"/>
      <point x="398" y="240"/>
      <point x="523" y="240" type="curve" smooth="yes"/>
      <point x="593" y="240"/>
      <point x="662" y="275"/>
      <point x="711" y="341" type="curve"/>
      <point x="685" y="429" type="line"/>
      <point x="643" y="371"/>
      <point x="593" y="332"/>
      <point x="535" y="332" type="curve" smooth="yes"/>
      <point x="430" y="332"/>
      <point x="364" y="420"/>
      <point x="238" y="420" type="curve" smooth="yes"/>
      <point x="169" y="420"/>
      <point x="100" y="384"/>
      <point x="52" y="318" type="curve"/>
    </contour>
  </outline>
</glyph>
<glyph name="H.bar" format="2">
  <advance width="800"/>
  <anchor x="325" y="0" name="bottom"/>
  <anchor x="510" y="750" name="center"/>
  <anchor x="547" y="900" name="top"/>
  <anchor x="273" y="900" name="topleft"/>
  <outline>
    <contour>
      <point x="51" y="0" type="line"/>
      <point x="165" y="0" type="line"/>
      <point x="276" y="444" type="line"/>
      <point x="596" y="444" type="line"/>
      <point x="485" y="0" type="line"/>
      <point x="599" y="0" type="line"/>
      <point x="824" y="900" type="line"/>
      <point x="710" y="900" type="line"/>
      <point x="622" y="546" type="line"/>
      <point x="302" y="546" type="line"/>
      <point x="390" y="900" type="line"/>
      <point x="276" y="900" type="line"/>
    </contour>
  </outline>
</glyph>
<glyph name="H.ss05" format="2">
  <advance width="960"/>
  <anchor x="510" y="0" name="bottom"/>
  <anchor x="510" y="750" name="center"/>
  <anchor x="510" y="900" name="top"/>
  <anchor x="126" y="900" name="topleft"/>
  <outline>
    <contour>
      <point x="126" y="0" type="line"/>
      <point x="240" y="0" type="line"/>
      <point x="240" y="429" type="line"/>
      <point x="720" y="429" type="line"/>
      <point x="720" y="0" type="line"/>
      <point x="834" y="0" type="line"/>
      <point x="834" y="900" type="line"/>
      <point x="720" y="900" type="line"/>
      <point x="720" y="531" type="line"/>
      <point x="240" y="531" type="line"/>
      <point x="240" y="900" type="line"/>
      <point x="126" y="900" type="line"/>
    </contour>
  </outline>
</glyph>
<glyph name="backslash.titl" format="2">
  <advance width="480"/>
  <outline>
    <contour>
      <point x="400" y="-180" type="line"/>
      <point x="140" y="960" type="line"/>
      <point x="80" y="960" type="line"/>
      <point x="340" y="-180" type="line"/>
    </contour>
  </outline>
</glyph>
<glyph name="braceright.titl" format="2">
  <advance width="480"/>
  <outline>
    <contour>
      <point x="-47" y="-186" type="line"/>
      <point x="145" y="-186"/>
      <point x="236" y="-100"/>
      <point x="278" y="77" type="curve" smooth="yes"/>
      <point x="291" y="130"/>
      <point x="294" y="170"/>
      <point x="304" y="210" type="curve" smooth="yes"/>
      <point x="325" y="292"/>
      <point x="362" y="319"/>
      <point x="449" y="345" type="curve"/>
      <point x="381" y="390"/>
      <point x="359" y="426"/>
      <point x="377" y="505" type="curve" smooth="yes"/>
      <point x="386" y="545"/>
      <point x="405" y="589"/>
      <point x="417" y="640" type="curve" smooth="yes"/>
      <point x="465" y="838"/>
      <point x="380" y="940"/>
      <point x="236" y="966" type="curve"/>
      <point x="213" y="918" type="line"/>
      <point x="328" y="902"/>
      <point x="407" y="837"/>
      <point x="360" y="647" type="curve" smooth="yes"/>
      <point x="348" y="598"/>
      <point x="331" y="554"/>
      <point x="322" y="521" type="curve" smooth="yes"/>
      <point x="297" y="425"/>
      <point x="326" y="355"/>
      <point x="425" y="343" type="curve"/>
      <point x="427" y="355" type="line"/>
      <point x="330" y="367"/>
      <point x="269" y="310"/>
      <point x="244" y="211" type="curve" smooth="yes"/>
      <point x="234" y="171"/>
      <point x="235" y="143"/>
      <point x="220" y="85" type="curve" smooth="yes"/>
      <point x="172" y="-104"/>
      <point x="84" y="-138"/>
      <point x="-47" y="-138" type="curve"/>
    </contour>
  </outline>
</glyph>
<glyph name="brevecomb_hookabovecomb" format="2">
  <anchor x="435" y="600" name="_top"/>
  <outline>
    <contour>
      <point x="480" y="675" type="curve" smooth="yes"/>
      <point x="580" y="675"/>
      <point x="663" y="749"/>
      <point x="678" y="849" type="curve"/>
      <point x="592" y="849" type="line"/>
      <point x="589" y="800"/>
      <point x="535" y="754"/>
      <point x="483" y="754" type="curve" smooth="yes"/>
      <point x="432" y="754"/>
      <point x="394" y="797"/>
      <point x="401" y="849" type="curve"/>
      <point x="315" y="849" type="line"/>
      <point x="305" y="750"/>
      <point x="376" y="675"/>
    </contour>
    <contour>
      <point x="462" y="879" type="curve"/>
      <point x="552" y="879" type="line"/>
      <point x="581" y="902"/>
      <point x="606" y="929"/>
      <point x="615" y="963" type="curve" smooth="yes"/>
      <point x="631" y="1028"/>
      <point x="585" y="1068"/>
      <point x="520" y="1068" type="curve" smooth="yes"/>
      <point x="488" y="1068"/>
      <point x="451" y="1059"/>
      <point x="419" y="1038" type="curve"/>
      <point x="420" y="963" type="line"/>
      <point x="438" y="980"/>
      <point x="465" y="996"/>
      <point x="491" y="996" type="curve" smooth="yes"/>
      <point x="520" y="996"/>
      <point x="534" y="977"/>
      <point x="528" y="952" type="curve" smooth="yes"/>
      <point x="523" y="932"/>
      <point x="498" y="908"/>
    </contour>
  </outline>
</glyph>
<glyph name="dieresiscomb.vertical" format="2">
  <anchor x="360" y="540" name="_top-vertical"/>
  <outline>
    <contour>
      <point x="381" y="591" type="curve" smooth="yes"/>
      <point x="422" y="591"/>
      <point x="458" y="627"/>
      <point x="458" y="669" type="curve" smooth="yes"/>
      <point x="458" y="703"/>
      <point x="431" y="729"/>
      <point x="397" y="729" type="curve" smooth="yes"/>
      <point x="356" y="729"/>
      <point x="320" y="693"/>
      <point x="320" y="651" type="curve" smooth="yes"/>
      <point x="320" y="617"/>
      <point x="347" y="591"/>
    </contour>
    <contour>
      <point x="323" y="351" type="curve" smooth="yes"/>
      <point x="364" y="351"/>
      <point x="400" y="387"/>
      <point x="400" y="429" type="curve" smooth="yes"/>
      <point x="400" y="463"/>
      <point x="373" y="489"/>
      <point x="339" y="489" type="curve" smooth="yes"/>
      <point x="298" y="489"/>
      <point x="262" y="453"/>
      <point x="262" y="411" type="curve" smooth="yes"/>
      <point x="262" y="377"/>
      <point x="289" y="351"/>
    </contour>
  </outline>
</glyph>
<glyph name="dotaccentcomb.case" format="2">
  <anchor x="360" y="900" name="_top"/>
  <outline>
    <contour>
      <point x="360" y="1008" type="curve" smooth="yes"/>
      <point x="401" y="1008"/>
      <point x="432" y="1040"/>
      <point x="432" y="1080" type="curve" smooth="yes"/>
      <point x="432" y="1121"/>
      <point x="401" y="1152"/>
      <point x="360" y="1152" type="curve" smooth="yes"/>
      <point x="320" y="1152"/>
      <point x="288" y="1121"/>
      <point x="288" y="1080" type="curve" smooth="yes"/>
      <point x="288" y="1040"/>
      <point x="320" y="1008"/>
    </contour>
  </outline>
</glyph>
<glyph name="eight.lf" format="2">
  <advance width="750"/>
  <outline>
    <contour>
      <point x="341" y="-12" type="curve" smooth="yes"/>
      <point x="521" y="-12"/>
      <point x="685" y="149"/>
      <point x="685" y="327" type="curve" smooth="yes"/>
      <point x="685" y="421"/>
      <point x="639" y="504"/>
      <point x="565" y="551" type="curve"/>
      <point x="566" y="533" type="line"/>
      <point x="654" y="582"/>
      <point x="685" y="664"/>
      <point x="685" y="727" type="curve" smooth="yes"/>
      <point x="685" y="829"/>
      <point x="607" y="912"/>
      <point x="500" y="912" type="curve" smooth="yes"/>
      <point x="373" y="912"/>
      <point x="263" y="797"/>
      <point x="263" y="682" type="curve" smooth="yes"/>
      <point x="263" y="641"/>
      <point x="277" y="602"/>
      <point x="302" y="566" type="curve"/>
      <point x="312" y="581" type="line"/>
      <point x="151" y="533"/>
      <point x="62" y="386"/>
      <point x="62" y="258" type="curve" smooth="yes"/>
      <point x="62" y="102"/>
      <point x="188" y="-12"/>
    </contour>
    <contour>
      <point x="350" y="89" type="curve" smooth="yes"/>
      <point x="244" y="89"/>
      <point x="172" y="171"/>
      <point x="172" y="269" type="curve" smooth="yes"/>
      <point x="172" y="389"/>
      <point x="277" y="498"/>
      <point x="400" y="498" type="curve" smooth="yes"/>
      <point x="502" y="498"/>
      <point x="575" y="419"/>
      <point x="575" y="320" type="curve" smooth="yes"/>
      <point x="575" y="198"/>
      <point x="467" y="89"/>
    </contour>
    <contour>
      <point x="459" y="586" type="curve" smooth="yes"/>
      <point x="402" y="586"/>
      <point x="360" y="626"/>
      <point x="360" y="684" type="curve" smooth="yes"/>
      <point x="360" y="756"/>
      <point x="422" y="816"/>
      <point x="489" y="816" type="curve" smooth="yes"/>
      <point x="546" y="816"/>
      <point x="587" y="768"/>
      <point x="587" y="711" type="curve" smooth="yes"/>
      <point x="587" y="640"/>
      <point x="525" y="586"/>
    </contour>
  </outline>
</glyph>
<glyph name="eight.numr" format="2">
  <advance width="480"/>
  <outline>
    <contour>
      <point x="290" y="408" type="curve" smooth="yes"/>
      <point x="395" y="408"/>
      <point x="487" y="496"/>
      <point x="487" y="597" type="curve" smooth="yes"/>
      <point x="487" y="648"/>
      <point x="462" y="693"/>
      <point x="419" y="720" type="curve"/>
      <point x="423" y="691" type="line"/>
      <point x="467" y="717"/>
      <point x="493" y="758"/>
      <point x="493" y="803" type="curve" smooth="yes"/>
      <point x="493" y="865"/>
      <point x="442" y="912"/>
      <point x="376" y="912" type="curve" smooth="yes"/>
      <point x="299" y="912"/>
      <point x="232" y="851"/>
      <point x="232" y="780" type="curve" smooth="yes"/>
      <point x="232" y="754"/>
      <point x="241" y="730"/>
      <point x="258" y="711" type="curve"/>
      <point x="275" y="737" type="line"/>
      <point x="192" y="715"/>
      <point x="132" y="640"/>
      <point x="132" y="560" type="curve" smooth="yes"/>
      <point x="132" y="474"/>
      <point x="201" y="408"/>
    </contour>
    <contour>
      <point x="299" y="488" type="curve" smooth="yes"/>
      <point x="252" y="488"/>
      <point x="218" y="521"/>
      <point x="218" y="567" type="curve" smooth="yes"/>
      <point x="218" y="622"/>
      <point x="265" y="669"/>
      <point x="321" y="669" type="curve" smooth="yes"/>
      <point x="369" y="669"/>
      <point x="401" y="637"/>
      <point x="401" y="590" type="curve" smooth="yes"/>
      <point x="401" y="534"/>
      <point x="355" y="488"/>
    </contour>
    <contour>
      <point x="354" y="731" type="curve" smooth="yes"/>
      <point x="326" y="731"/>
      <point x="305" y="752"/>
      <point x="305" y="780" type="curve" smooth="yes"/>
      <point x="305" y="812"/>
      <point x="334" y="840"/>
      <point x="367" y="840" type="curve" smooth="yes"/>
      <point x="395" y="840"/>
      <point x="416" y="819"/>
      <point x="416" y="792" type="curve" smooth="yes"/>
      <point x="416" y="759"/>
      <point x="388" y="731"/>
    </contour>
  </outline>
</glyph>
<glyph name="el.lf" format="2">
  <advance width="690"/>
  <outline>
    <contour>
      <point x="45" y="0" type="line"/>
      <point x="547" y="0" type="line"/>
      <point x="572" y="102" type="line"/>
      <point x="186" y="102" type="line"/>
      <point x="208" y="57" type="line"/>
      <point x="512" y="453" type="line"/>
      <point x="495" y="448"/>
      <point x="477" y="446"/>
      <point x="458" y="446" type="curve" smooth="yes"/>
      <point x="360" y="446"/>
      <point x="292" y="516"/>
      <point x="292" y="607" type="curve" smooth="yes"/>
      <point x="292" y="716"/>
      <point x="388" y="810"/>
      <point x="492" y="810" type="curve" smooth="yes"/>
      <point x="587" y="810"/>
      <point x="660" y="736"/>
      <point x="658" y="640" type="curve"/>
      <point x="749" y="751" type="line"/>
      <point x="707" y="856"/>
      <point x="607" y="912"/>
      <point x="504" y="912" type="curve" smooth="yes"/>
      <point x="337" y="912"/>
      <point x="183" y="765"/>
      <point x="183" y="596" type="curve" smooth="yes"/>
      <point x="183" y="483"/>
      <point x="256" y="388"/>
      <point x="365" y="364" type="curve"/>
      <point x="363" y="415" type="line"/>
    </contour>
  </outline>
</glyph>
<glyph name="emdash.titl" format="2">
  <advance width="1440"/>
  <outline>
    <contour>
      <point x="53" y="273" type="line"/>
      <point x="1373" y="273" type="line"/>
      <point x="1387" y="327" type="line"/>
      <point x="67" y="327" type="line"/>
    </contour>
  </outline>
</glyph>
<glyph name="endash.titl" format="2">
  <advance width="720"/>
  <outline>
    <contour>
      <point x="53" y="273" type="line"/>
      <point x="653" y="273" type="line"/>
      <point x="667" y="327" type="line"/>
      <point x="67" y="327" type="line"/>
    </contour>
  </outline>
</glyph>
<glyph name="equal.titl" format="2">
  <advance width="750"/>
  <outline>
    <contour>
      <point x="93" y="311" type="line"/>
      <point x="663" y="311" type="line"/>
      <point x="675" y="361" type="line"/>
      <point x="105" y="361" type="line"/>
    </contour>
    <contour>
      <point x="149" y="539" type="line"/>
      <point x="719" y="539" type="line"/>
      <point x="731" y="589" type="line"/>
      <point x="161" y="589" type="line"/>
    </contour>
  </outline>
</glyph>
<glyph name="f_f" format="2">
  <advance width="840"/>
  <outline>
    <contour>
      <point x="482" y="0" type="line"/>
      <point x="590" y="0" type="line"/>
      <point x="726" y="549" type="line"/>
      <point x="723" y="549" type="line"/>
      <point x="777" y="772" type="line" smooth="yes"/>
      <point x="798" y="857"/>
      <point x="841" y="882"/>
      <point x="884" y="882" type="curve" smooth="yes"/>
      <point x="921" y="882"/>
      <point x="957" y="864"/>
      <point x="979" y="830" type="curve"/>
      <point x="1028" y="929" type="line"/>
      <point x="990" y="960"/>
      <point x="934" y="972"/>
      <point x="891" y="972" type="curve" smooth="yes"/>
      <point x="798" y="972"/>
      <point x="709" y="914"/>
      <point x="678" y="787" type="curve" smooth="yes"/>
      <point x="621" y="550" type="line"/>
      <point x="618" y="550" type="line"/>
    </contour>
    <contour>
      <point x="92" y="0" type="line"/>
      <point x="200" y="0" type="line"/>
      <point x="336" y="549" type="line"/>
      <point x="333" y="549" type="line"/>
      <point x="387" y="772" type="line" smooth="yes"/>
      <point x="408" y="857"/>
      <point x="451" y="882"/>
      <point x="494" y="882" type="curve" smooth="yes"/>
      <point x="531" y="882"/>
      <point x="567" y="864"/>
      <point x="589" y="830" type="curve"/>
      <point x="638" y="929" type="line"/>
      <point x="600" y="960"/>
      <point x="544" y="972"/>
      <point x="501" y="972" type="curve" smooth="yes"/>
      <point x="408" y="972"/>
      <point x="319" y="914"/>
      <point x="288" y="787" type="curve" smooth="yes"/>
      <point x="231" y="550" type="line"/>
      <point x="228" y="550" type="line"/>
    </contour>
    <contour>
      <point x="82" y="510" type="line"/>
      <point x="862" y="510" type="line"/>
      <point x="885" y="600" type="line"/>
      <point x="105" y="600" type="line"/>
    </contour>
  </outline>
</glyph>
<glyph name="five.numr" format="2">
  <advance width="480"/>
  <outline>
    <contour>
      <point x="272" y="408" type="curve" smooth="yes"/>
      <point x="378" y="408"/>
      <point x="472" y="497"/>
      <point x="472" y="603" type="curve" smooth="yes"/>
      <point x="472" y="693"/>
      <point x="401" y="746"/>
      <point x="319" y="746" type="curve" smooth="yes"/>
      <point x="302" y="746"/>
      <point x="287" y="743"/>
      <point x="272" y="735" type="curve"/>
      <point x="290" y="695" type="line"/>
      <point x="322" y="820" type="line"/>
      <point x="492" y="820" type="line"/>
      <point x="512" y="900" type="line"/>
      <point x="271" y="900" type="line"/>
      <point x="206" y="640" type="line"/>
      <point x="233" y="663"/>
      <point x="261" y="677"/>
      <point x="294" y="677" type="curve" smooth="yes"/>
      <point x="351" y="677"/>
      <point x="386" y="641"/>
      <point x="386" y="595" type="curve" smooth="yes"/>
      <point x="386" y="536"/>
      <point x="337" y="488"/>
      <point x="279" y="488" type="curve" smooth="yes"/>
      <point x="222" y="488"/>
      <point x="177" y="532"/>
      <point x="184" y="593" type="curve"/>
      <point x="114" y="510" type="line"/>
      <point x="139" y="449"/>
      <point x="200" y="408"/>
    </contour>
  </outline>
</glyph>
<glyph name="greater.titl" format="2">
  <advance width="750"/>
  <outline>
    <contour>
      <point x="58" y="173" type="line"/>
      <point x="696" y="450" type="line"/>
      <point x="194" y="729" type="line"/>
      <point x="182" y="678" type="line"/>
      <point x="492" y="508" type="line" smooth="yes"/>
      <point x="524" y="490"/>
      <point x="560" y="473"/>
      <point x="597" y="456" type="curve"/>
      <point x="552" y="440"/>
      <point x="508" y="423"/>
      <point x="466" y="405" type="curve" smooth="yes"/>
      <point x="73" y="235" type="line"/>
    </contour>
  </outline>
</glyph>
<glyph name="guilsinglright.case" format="2">
  <advance width="360"/>
  <outline>
    <contour>
      <point x="156" y="210" type="line"/>
      <point x="318" y="450" type="line"/>
      <point x="156" y="690" type="line"/>
      <point x="48" y="690" type="line"/>
      <point x="210" y="450" type="line"/>
      <point x="48" y="210" type="line"/>
    </contour>
  </outline>
</glyph>
<glyph name="hyphen.case" format="2">
  <advance width="360"/>
  <outline>
    <contour>
      <point x="55" y="402" type="line"/>
      <point x="355" y="402" type="line"/>
      <point x="379" y="498" type="line"/>
      <point x="79" y="498" type="line"/>
    </contour>
  </outline>
</glyph>
<glyph name="minus.titl" format="2">
  <advance width="750"/>
  <outline>
    <contour>
      <point x="121" y="424" type="line"/>
      <point x="691" y="424" type="line"/>
      <point x="703" y="476" type="line"/>
      <point x="133" y="476" type="line"/>
    </contour>
  </outline>
</glyph>
<glyph name="one.lf" format="2">
  <advance width="480"/>
  <outline>
    <contour>
      <point x="147" y="0" type="line"/>
      <point x="261" y="0" type="line"/>
      <point x="490" y="920" type="line"/>
      <point x="194" y="788" type="line"/>
      <point x="166" y="676" type="line"/>
      <point x="367" y="765" type="line"/>
      <point x="340" y="772" type="line"/>
    </contour>
  </outline>
</glyph>
<glyph name="one.numr" format="2">
  <advance width="480"/>
  <outline>
    <contour>
      <point x="378" y="803" type="line"/>
      <point x="353" y="806" type="line"/>
      <point x="258" y="420" type="line"/>
      <point x="348" y="420" type="line"/>
      <point x="472" y="920" type="line"/>
      <point x="242" y="818" type="line"/>
      <point x="222" y="734" type="line"/>
    </contour>
  </outline>
</glyph>
<glyph name="parenleft.titl" format="2">
  <advance width="480"/>
  <outline>
    <contour>
      <point x="184" y="-180" type="curve"/>
      <point x="247" y="-180" type="line"/>
      <point x="209" y="-80"/>
      <point x="188" y="29"/>
      <point x="188" y="143" type="curve" smooth="yes"/>
      <point x="188" y="419"/>
      <point x="308" y="732"/>
      <point x="548" y="960" type="curve"/>
      <point x="471" y="960" type="line"/>
      <point x="256" y="730"/>
      <point x="131" y="438"/>
      <point x="131" y="142" type="curve" smooth="yes"/>
      <point x="131" y="30"/>
      <point x="149" y="-79"/>
    </contour>
  </outline>
</glyph>
<glyph name="plus.titl" format="2">
  <advance width="750"/>
  <outline>
    <contour>
      <point x="307" y="135" type="line"/>
      <point x="361" y="135" type="line"/>
      <point x="517" y="765" type="line"/>
      <point x="463" y="765" type="line"/>
    </contour>
    <contour>
      <point x="91" y="424" type="line"/>
      <point x="721" y="424" type="line"/>
      <point x="733" y="476" type="line"/>
      <point x="103" y="476" type="line"/>
    </contour>
  </outline>
</glyph>
<glyph name="registered.lf" format="2">
  <advance width="1260"/>
  <outline>
    <contour>
      <point x="579" y="-192" type="curve" smooth="yes"/>
      <point x="906" y="-192"/>
      <point x="1202" y="102"/>
      <point x="1202" y="425" type="curve" smooth="yes"/>
      <point x="1202" y="700"/>
      <point x="988" y="912"/>
      <point x="709" y="912" type="curve" smooth="yes"/>
      <point x="382" y="912"/>
      <point x="86" y="618"/>
      <point x="86" y="295" type="curve" smooth="yes"/>
      <point x="86" y="20"/>
      <point x="300" y="-192"/>
    </contour>
    <contour>
      <point x="586" y="-102" type="curve" smooth="yes"/>
      <point x="357" y="-102"/>
      <point x="182" y="71"/>
      <point x="182" y="300" type="curve" smooth="yes"/>
      <point x="182" y="573"/>
      <point x="429" y="822"/>
      <point x="702" y="822" type="curve" smooth="yes"/>
      <point x="931" y="822"/>
      <point x="1106" y="649"/>
      <point x="1106" y="420" type="curve" smooth="yes"/>
      <point x="1106" y="147"/>
      <point x="859" y="-102"/>
    </contour>
    <contour>
      <point x="391" y="90" type="line"/>
      <point x="487" y="90" type="line"/>
      <point x="622" y="630" type="line"/>
      <point x="526" y="630" type="line"/>
    </contour>
    <contour>
      <point x="724" y="90" type="line"/>
      <point x="826" y="90" type="line"/>
      <point x="717" y="333" type="line"/>
      <point x="617" y="333" type="line"/>
    </contour>
    <contour>
      <point x="493" y="287" type="line"/>
      <point x="665" y="287" type="line" smooth="yes"/>
      <point x="780" y="287"/>
      <point x="875" y="375"/>
      <point x="875" y="479" type="curve" smooth="yes"/>
      <point x="875" y="569"/>
      <point x="806" y="630"/>
      <point x="707" y="630" type="curve" smooth="yes"/>
      <point x="574" y="630" type="line"/>
      <point x="554" y="546" type="line"/>
      <point x="686" y="546" type="line" smooth="yes"/>
      <point x="742" y="546"/>
      <point x="776" y="514"/>
      <point x="776" y="468" type="curve" smooth="yes"/>
      <point x="776" y="413"/>
      <point x="727" y="366"/>
      <point x="663" y="366" type="curve" smooth="yes"/>
      <point x="509" y="366" type="line"/>
    </contour>
  </outline>
</glyph>
<glyph name="ringcomb_acutecomb" format="2">
  <anchor x="435" y="600" name="_top"/>
  <outline>
    <contour>
      <point x="465" y="651" type="curve" smooth="yes"/>
      <point x="542" y="651"/>
      <point x="612" y="719"/>
      <point x="612" y="795" type="curve" smooth="yes"/>
      <point x="612" y="860"/>
      <point x="560" y="909"/>
      <point x="495" y="909" type="curve" smooth="yes"/>
      <point x="418" y="909"/>
      <point x="348" y="841"/>
      <point x="348" y="765" type="curve" smooth="yes"/>
      <point x="348" y="700"/>
      <point x="400" y="651"/>
    </contour>
    <contour>
      <point x="472" y="717" type="curve" smooth="yes"/>
      <point x="440" y="717"/>
      <point x="417" y="742"/>
      <point x="417" y="772" type="curve" smooth="yes"/>
      <point x="417" y="810"/>
      <point x="451" y="843"/>
      <point x="488" y="843" type="curve" smooth="yes"/>
      <point x="520" y="843"/>
      <point x="543" y="818"/>
      <point x="543" y="788" type="curve" smooth="yes"/>
      <point x="543" y="750"/>
      <point x="509" y="717"/>
    </contour>
    <contour>
      <point x="489" y="969" type="line"/>
      <point x="573" y="969" type="line"/>
      <point x="678" y="1080" type="line"/>
      <point x="573" y="1080" type="line"/>
    </contour>
  </outline>
</glyph>
<glyph name="seven.numr" format="2">
  <advance width="480"/>
  <outline>
    <contour>
      <point x="134" y="420" type="line"/>
      <point x="236" y="420" type="line"/>
      <point x="585" y="900" type="line"/>
      <point x="236" y="900" type="line"/>
      <point x="216" y="820" type="line"/>
      <point x="461" y="820" type="line"/>
      <point x="456" y="860" type="line"/>
    </contour>
  </outline>
</glyph>
<glyph name="slash.titl" format="2">
  <advance width="480"/>
  <outline>
    <contour>
      <point x="-180" y="-180" type="line"/>
      <point x="-110" y="-180" type="line"/>
      <point x="700" y="960" type="line"/>
      <point x="630" y="960" type="line"/>
    </contour>
  </outline>
</glyph>
<glyph name="slashshortcomb.case" format="2">
  <anchor x="215" y="300" name="_center"/>
  <outline>
    <contour>
      <point x="36" y="155" type="line"/>
      <point x="534" y="435" type="line"/>
      <point x="504" y="509" type="line"/>
      <point x="6" y="229" type="line"/>
    </contour>
  </outline>
</glyph>
<glyph name="strokeshortcomb.case.001" format="2">
  <anchor x="179" y="300" name="_center"/>
  <outline>
    <contour>
      <point x="20" y="258" type="line"/>
      <point x="500" y="258" type="line"/>
      <point x="520" y="342" type="line"/>
      <point x="40" y="342" type="line"/>
    </contour>
  </outline>
</glyph>
<glyph name="tildecomb.case" format="2">
  <anchor x="510" y="900" name="_top"/>
  <outline>
    <contour>
      <point x="357" y="993" type="line"/>
      <point x="380" y="1041"/>
      <point x="412" y="1069"/>
      <point x="455" y="1069" type="curve" smooth="yes"/>
      <point x="520" y="1069"/>
      <point x="575" y="995"/>
      <point x="653" y="995" type="curve" smooth="yes"/>
      <point x="703" y="995"/>
      <point x="744" y="1021"/>
      <point x="774" y="1071" type="curve"/>
      <point x="751" y="1167" type="line"/>
      <point x="728" y="1119"/>
      <point x="696" y="1091"/>
      <point x="653" y="1091" type="curve" smooth="yes"/>
      <point x="588" y="1091"/>
      <point x="533" y="1165"/>
      <point x="455" y="1165" type="curve" smooth="yes"/>
      <point x="405" y="1165"/>
      <point x="364" y="1139"/>
      <point x="334" y="1089" type="curve"/>
    </contour>
  </outline>
</glyph>
<glyph name="underscore.titl" format="2">
  <advance width="720"/>
  <outline>
    <contour>
      <point x="-126" y="-180" type="line"/>
      <point x="606" y="-180" type="line"/>
      <point x="620" y="-126" type="line"/>
      <point x="-112" y="-126" type="line"/>
    </contour>
  </outline>
</glyph>
<glyph name="zero.lf" format="2">
  <advance width="750"/>
  <outline>
    <contour>
      <point x="330" y="-12" type="curve" smooth="yes"/>
      <point x="542" y="-12"/>
      <point x="740" y="277"/>
      <point x="740" y="588" type="curve" smooth="yes"/>
      <point x="740" y="784"/>
      <point x="643" y="912"/>
      <point x="494" y="912" type="curve" smooth="yes"/>
      <point x="284" y="912"/>
      <point x="84" y="621"/>
      <point x="84" y="314" type="curve" smooth="yes"/>
      <point x="84" y="118"/>
      <point x="182" y="-12"/>
    </contour>
    <contour>
      <point x="340" y="90" type="curve" smooth="yes"/>
      <point x="254" y="90"/>
      <point x="198" y="176"/>
      <point x="198" y="311" type="curve" smooth="yes"/>
      <point x="198" y="556"/>
      <point x="344" y="810"/>
      <point x="484" y="810" type="curve" smooth="yes"/>
      <point x="574" y="810"/>
      <point x="626" y="729"/>
      <point x="626" y="590" type="curve" smooth="yes"/>
      <point x="626" y="342"/>
      <point x="482" y="90"/>
    </contour>
  </outline>
</glyph>
<glyph name="zero.numr" format="2">
  <advance width="480"/>
  <outline>
    <contour>
      <point x="286" y="408" type="curve" smooth="yes"/>
      <point x="414" y="408"/>
      <point x="527" y="559"/>
      <point x="527" y="721" type="curve" smooth="yes"/>
      <point x="527" y="845"/>
      <point x="461" y="912"/>
      <point x="376" y="912" type="curve" smooth="yes"/>
      <point x="248" y="912"/>
      <point x="133" y="762"/>
      <point x="133" y="600" type="curve" smooth="yes"/>
      <point x="133" y="480"/>
      <point x="197" y="408"/>
    </contour>
    <contour>
      <point x="296" y="487" type="curve" smooth="yes"/>
      <point x="257" y="487"/>
      <point x="223" y="522"/>
      <point x="223" y="599" type="curve" smooth="yes"/>
      <point x="223" y="708"/>
      <point x="291" y="832"/>
      <point x="369" y="832" type="curve" smooth="yes"/>
      <point x="412" y="832"/>
      <point x="437" y="793"/>
      <point x="437" y="723" type="curve" smooth="yes"/>
      <point x="437" y="604"/>
      <point x="366" y="487"/>
    </contour>
  </outline>
</glyph>
